<!-- Generated by IcoMoon.io -->
<svg version="1.1" xmlns="http://www.w3.org/2000/svg" width="32" height="32" viewBox="0 0 32 32">
    <title>clear-month</title>
    <path d="M16 16.346v-3.75h3.75v3.75h-3.75zM8.5 12.596h-3.75v3.75h3.75v-3.75zM2.875 23.66v-12.939h20.625v3.75h1.875v-7.313c0-1.139-0.908-2.062-2.031-2.062h-0.782v0.938c0 1.033-0.841 1.875-1.875 1.875s-1.875-0.842-1.875-1.875v-0.938h-11.25v0.938c0 1.033-0.84 1.875-1.875 1.875s-1.875-0.842-1.875-1.875v-0.938h-0.78c-1.124 0-2.033 0.923-2.033 2.062v16.502c0 1.135 0.908 2.062 2.033 2.062h11.093v-1.875h-11.093c-0.086-0-0.157-0.088-0.157-0.186zM5.688 6.971c0.518 0 0.937-0.419 0.937-0.937v-3.75c0-0.518-0.419-0.938-0.937-0.938s-0.938 0.419-0.938 0.938v3.75c0 0.518 0.419 0.937 0.938 0.937zM20.688 6.971c0.518 0 0.938-0.419 0.938-0.937v-3.75c0-0.518-0.42-0.938-0.938-0.938s-0.938 0.419-0.938 0.938v3.75c0 0.518 0.42 0.937 0.938 0.937zM26.151 21.195c-0.366-0.366-0.959-0.366-1.326 0l-1.326 1.326-1.326-1.326c-0.366-0.366-0.96-0.366-1.326 0s-0.366 0.959 0 1.326l1.326 1.325-1.326 1.326c-0.366 0.366-0.366 0.96 0 1.326s0.96 0.366 1.326 0l1.326-1.326 1.326 1.326c0.366 0.366 0.959 0.366 1.326 0s0.366-0.959 0-1.326l-1.326-1.326 1.326-1.325c0.366-0.366 0.366-0.959 0-1.326zM31 23.846c0 4.142-3.358 7.5-7.5 7.5s-7.5-3.358-7.5-7.5c0-4.142 3.358-7.5 7.5-7.5s7.5 3.358 7.5 7.5zM29.125 23.846c0-3.101-2.523-5.625-5.625-5.625s-5.625 2.524-5.625 5.625c0 3.102 2.523 5.625 5.625 5.625s5.625-2.523 5.625-5.625zM10.375 21.971h3.75v-3.75h-3.75v3.75zM10.375 16.346h3.75v-3.75h-3.75v3.75zM4.75 21.971h3.75v-3.75h-3.75v3.75z"></path>
</svg>
