<!-- Generated by IcoMoon.io -->
<svg version="1.1" xmlns="http://www.w3.org/2000/svg" width="32" height="32" viewBox="0 0 32 32">
    <title>save</title>
    <path d="M27.247 8.971l-4.494-4.494c-0.465-0.465-1.108-0.753-1.818-0.753h-14.363c-1.42 0-2.572 1.151-2.572 2.572v18.857c0 1.42 1.151 2.572 2.572 2.572h18.857c1.42 0 2.572-1.151 2.572-2.572v-14.363c0-0.71-0.288-1.353-0.753-1.818v0zM19.429 5.439v5.143h-10.286v-5.143h10.286zM26.286 25.153c0 0.473-0.385 0.857-0.857 0.857h-18.857c-0.473 0-0.857-0.385-0.857-0.857v-18.857c0-0.473 0.385-0.857 0.857-0.857h0.857v5.572c0 0.71 0.576 1.286 1.286 1.286h11.143c0.71 0 1.286-0.576 1.286-1.286v-5.545c0.157 0.040 0.292 0.118 0.398 0.225l4.494 4.494c0.155 0.154 0.251 0.368 0.251 0.604 0 0.001 0 0.002 0 0.002v-0 14.363zM16 14.439c-2.599 0-4.714 2.115-4.714 4.714s2.115 4.714 4.714 4.714 4.714-2.115 4.714-4.714-2.115-4.714-4.714-4.714zM16 22.153c-1.654 0-3-1.346-3-3s1.346-3 3-3 3 1.346 3 3-1.346 3-3 3z"></path>
</svg>
