<!-- Generated by IcoMoon.io -->
<svg version="1.1" xmlns="http://www.w3.org/2000/svg" width="32" height="32" viewBox="0 0 32 32">
    <title>search</title>
    <path d="M21.094 19.086h-1.094l-0.411-0.343c1.299-1.577 2.12-3.566 2.12-5.829 0-4.937-3.966-8.914-8.889-8.914-4.855 0-8.821 3.977-8.821 8.914s3.966 8.914 8.889 8.914c2.188 0 4.239-0.823 5.812-2.125l0.41 0.343v1.097l6.838 6.857 2.051-2.057-6.906-6.857zM12.889 19.086c-3.419 0-6.154-2.743-6.154-6.171s2.735-6.171 6.154-6.171c3.419 0 6.154 2.743 6.154 6.171s-2.735 6.171-6.154 6.171z"></path>
</svg>
