<!-- Generated by IcoMoon.io -->
<svg version="1.1" xmlns="http://www.w3.org/2000/svg" width="32" height="32" viewBox="0 0 32 32">
    <title>trash</title>
    <path d="M21.688 6.25l-1.706-2.275c-0.462-0.614-1.183-0.975-1.95-0.975h-4.063c-0.767 0-1.488 0.361-1.95 0.975l-1.706 2.275h-4.469c-0.675 0-1.219 0.543-1.219 1.219v0.102c0 0.168 0.137 0.305 0.305 0.305h1.32v18.688c0 1.346 1.092 2.438 2.438 2.438h14.625c1.346 0 2.438-1.092 2.438-2.438v-18.688h1.32c0.168 0 0.305-0.137 0.305-0.305v-0.102c0-0.675-0.543-1.219-1.219-1.219h-4.469zM13.969 4.625h4.063c0.254 0 0.498 0.122 0.65 0.325l0.975 1.3h-7.313l0.975-1.3c0.152-0.203 0.396-0.325 0.65-0.325zM24.125 26.563c0 0.447-0.366 0.813-0.813 0.813h-14.625c-0.447 0-0.813-0.366-0.813-0.813v-18.688h16.25v18.688zM15.188 24.328v-13.406c0-0.335 0.274-0.609 0.609-0.609h0.406c0.335 0 0.609 0.274 0.609 0.609v13.406c0 0.335-0.274 0.609-0.609 0.609h-0.406c-0.335 0-0.609-0.274-0.609-0.609zM11.125 24.328v-13.406c0-0.335 0.274-0.609 0.609-0.609h0.406c0.335 0 0.609 0.274 0.609 0.609v13.406c0 0.335-0.274 0.609-0.609 0.609h-0.406c-0.335 0-0.609-0.274-0.609-0.609zM19.25 24.328v-13.406c0-0.335 0.274-0.609 0.609-0.609h0.406c0.335 0 0.609 0.274 0.609 0.609v13.406c0 0.335-0.274 0.609-0.609 0.609h-0.406c-0.335 0-0.609-0.274-0.609-0.609z"></path>
</svg>
