<!-- Generated by IcoMoon.io -->
<svg version="1.1" xmlns="http://www.w3.org/2000/svg" width="32" height="32" viewBox="0 0 32 32">
    <title>window-close</title>
    <path d="M27.143 4.333h-22.286c-1.42 0-2.571 1.152-2.571 2.571v18.857c0 1.42 1.152 2.571 2.571 2.571h22.286c1.42 0 2.571-1.152 2.571-2.571v-18.857c0-1.42-1.152-2.571-2.571-2.571zM28 25.762c0 0.471-0.386 0.857-0.857 0.857h-22.286c-0.471 0-0.857-0.386-0.857-0.857v-18.857c0-0.471 0.386-0.857 0.857-0.857h22.286c0.471 0 0.857 0.386 0.857 0.857v18.857zM20.961 12.707l-3.627 3.627 3.627 3.627c0.246 0.246 0.246 0.643 0 0.889l-0.445 0.445c-0.246 0.246-0.643 0.246-0.889 0l-3.627-3.627-3.627 3.627c-0.246 0.246-0.643 0.246-0.889 0l-0.445-0.445c-0.246-0.246-0.246-0.643 0-0.889l3.627-3.627-3.627-3.627c-0.246-0.246-0.246-0.643 0-0.889l0.445-0.445c0.246-0.246 0.643-0.246 0.889 0l3.627 3.627 3.627-3.627c0.246-0.246 0.643-0.246 0.889 0l0.445 0.445c0.241 0.246 0.241 0.643 0 0.889z"></path>
</svg>
