<!-- Generated by IcoMoon.io -->
<svg version="1.1" xmlns="http://www.w3.org/2000/svg" width="32" height="32" viewBox="0 0 32 32">
    <title>window-restore</title>
    <path d="M26.563 4h-16.25c-1.346 0-2.438 1.092-2.438 2.438v2.438h-2.438c-1.346 0-2.438 1.092-2.438 2.438v16.25c0 1.346 1.092 2.438 2.438 2.438h16.25c1.346 0 2.438-1.092 2.438-2.438v-2.438h2.438c1.346 0 2.438-1.092 2.438-2.438v-16.25c0-1.346-1.092-2.438-2.438-2.438zM4.625 11.313c0-0.447 0.366-0.813 0.813-0.813h16.25c0.447 0 0.813 0.366 0.813 0.813v4.063h-17.875v-4.063zM22.5 27.563c0 0.447-0.366 0.813-0.813 0.813h-16.25c-0.447 0-0.813-0.366-0.813-0.813v-10.563h17.875v10.563zM27.375 22.688c0 0.447-0.366 0.813-0.813 0.813h-2.438v-12.188c0-1.346-1.092-2.438-2.438-2.438h-12.188v-2.438c0-0.447 0.366-0.813 0.813-0.813h16.25c0.447 0 0.813 0.366 0.813 0.813v16.25z"></path>
</svg>
