<!-- Generated by IcoMoon.io -->
<svg version="1.1" xmlns="http://www.w3.org/2000/svg" width="32" height="32" viewBox="0 0 32 32">
    <title>window-list</title>
    <path d="M27.143 5.714c0.473 0 0.857 0.385 0.857 0.857v18.857c0 0.473-0.385 0.857-0.857 0.857h-22.285c-0.473 0-0.857-0.385-0.857-0.857v-18.857c0-0.473 0.385-0.857 0.857-0.857h22.285zM27.143 4h-22.285c-1.42 0-2.572 1.151-2.572 2.572v18.857c0 1.42 1.151 2.572 2.572 2.572h22.285c1.42 0 2.572-1.151 2.572-2.572v-18.857c0-1.42-1.151-2.572-2.572-2.572zM9.143 9.143c-0.947 0-1.714 0.767-1.714 1.714s0.767 1.714 1.714 1.714 1.714-0.767 1.714-1.714-0.767-1.714-1.714-1.714zM9.143 14.286c-0.947 0-1.714 0.767-1.714 1.714s0.767 1.714 1.714 1.714 1.714-0.767 1.714-1.714-0.767-1.714-1.714-1.714zM9.143 19.428c-0.947 0-1.714 0.767-1.714 1.714s0.767 1.714 1.714 1.714 1.714-0.767 1.714-1.714-0.767-1.714-1.714-1.714zM24.571 11.5v-1.286c0-0.178-0.144-0.322-0.322-0.322v0h-11.357c-0.178 0-0.322 0.144-0.322 0.322v0 1.286c0 0.178 0.144 0.322 0.322 0.322v0h11.357c0.178 0 0.322-0.144 0.322-0.322v0zM24.571 16.643v-1.286c0-0.178-0.144-0.322-0.322-0.322v0h-11.357c-0.178 0-0.322 0.144-0.322 0.322v0 1.286c0 0.178 0.144 0.322 0.322 0.322v0h11.357c0.178 0 0.322-0.144 0.322-0.322v0zM24.571 21.785v-1.286c0-0.178-0.144-0.322-0.322-0.322v0h-11.357c-0.178 0-0.322 0.144-0.322 0.322v0 1.286c0 0.178 0.144 0.322 0.322 0.322v0h11.357c0.178 0 0.322-0.144 0.322-0.322v0z"></path>
</svg>
