<!-- Generated by IcoMoon.io -->
<svg version="1.1" xmlns="http://www.w3.org/2000/svg" width="32" height="32" viewBox="0 0 32 32">
    <title>window-maximize</title>
    <path d="M26.214 6.222h-20.428c-1.301 0-2.357 1.056-2.357 2.357v17.286c0 1.301 1.056 2.357 2.357 2.357h20.428c1.301 0 2.357-1.056 2.357-2.357v-17.286c0-1.301-1.056-2.357-2.357-2.357zM27 25.865c0 0.432-0.354 0.786-0.786 0.786h-20.428c-0.432 0-0.786-0.354-0.786-0.786v-11.786h22v11.786zM5 12.508v-3.929c0-0.432 0.354-0.786 0.786-0.786h20.428c0.432 0 0.786 0.354 0.786 0.786v3.929h-22z"></path>
</svg>
